<svg width="124.97509765625px" height="122.021240234375px" xmlns="http://www.w3.org/2000/svg" viewBox="187.512451171875 13.9893798828125 124.97509765625 122.021240234375" style="background: rgba(0, 0, 0, 0);" preserveAspectRatio="xMidYMid"><defs><filter id="editing-vr"><feFlood flood-color="#f00" flood-opacity="0.7" result="c1"></feFlood><feFlood flood-color="#0000ff" flood-opacity="0.7" result="c3"></feFlood><feComposite operator="in" in="c1" in2="SourceAlpha" result="text-c1"></feComposite><feComposite operator="in" in="c3" in2="SourceAlpha" result="text-c3"></feComposite><feOffset in="text-c1" dx="5" dy="-1" result="text1"></feOffset><feOffset in="text-c3" dx="-5" dy="1" result="text3"></feOffset><feBlend in="SourceGraphic" in2="text1" mode="multiply" result="text4"></feBlend><feBlend in="text4" in2="text3" mode="multiply"></feBlend></filter></defs><g filter="url(#editing-vr)"><g transform="translate(213.14000043272972, 98.67218780517578)"><path d="M14.62 0.16L14.62 0.16L14.62 0.16Q11.20-0.45 9.41-0.70L9.41-0.70L9.41-0.70Q7.62-0.96 5.73-0.96L5.73-0.96L5.73-0.96Q3.84-0.96 2.88 0L2.88 0L2.88 0Q1.41-1.09 0.64-4.54L0.64-4.54L0.64-4.54Q0.38-5.50 0.38-7.10L0.38-7.10L0.38-7.10Q0.38-10.56 4.35-13.95L4.35-13.95L24.32-30.34L24.32-30.34Q16.06-31.68 12.74-31.68L12.74-31.68L12.74-31.68Q9.41-31.68 6.34-30.21L6.34-30.21L6.34-30.21Q4.61-33.02 4.61-36.29L4.61-36.29L4.61-36.29Q4.61-39.55 7.01-41.22L7.01-41.22L7.01-41.22Q9.41-42.88 13.44-42.88L13.44-42.88L13.44-42.88Q15.23-42.88 17.15-42.62L17.15-42.62L17.15-42.62Q19.07-42.37 20.99-42.11L20.99-42.11L24.77-41.54L24.77-41.54Q26.62-41.28 29.02-41.28L29.02-41.28L29.02-41.28Q31.42-41.28 34.11-41.92L34.11-41.92L34.11-41.92Q36.67-39.68 36.67-35.97L36.67-35.97L36.67-35.97Q36.67-31.49 33.60-29.06L33.60-29.06L11.84-11.65L11.84-11.65Q16.51-10.37 24.26-10.37L24.26-10.37L24.26-10.37Q28.10-10.37 30.53-12.29L30.53-12.29L30.53-12.29Q31.62-10.88 31.90-9.70L31.90-9.70L31.90-9.70Q32.19-8.51 32.19-6.82L32.19-6.82L32.19-6.82Q32.19-5.12 31.62-3.74L31.62-3.74L31.62-3.74Q31.04-2.37 29.82-1.34L29.82-1.34L29.82-1.34Q27.39 0.77 22.02 0.77L22.02 0.77L22.02 0.77Q18.05 0.77 14.62 0.16ZM70.21-7.10L70.21-7.10L70.21-7.10Q70.21-4.29 73.09-3.46L73.09-3.46L73.09-3.46Q72.38-1.09 69.63 0.19L69.63 0.19L69.63 0.19Q67.33 1.28 64.80 1.28L64.80 1.28L64.80 1.28Q62.27 1.28 60.96 0.61L60.96 0.61L60.96 0.61Q59.65-0.06 58.94-1.15L58.94-1.15L58.94-1.15Q57.79-2.82 57.79-5.95L57.79-5.95L57.79-5.95Q57.79-7.81 58.82-12.93L58.82-12.93L59.71-17.79L59.71-17.79Q60.80-23.36 60.80-25.41L60.80-25.41L60.80-25.41Q60.80-28.99 58.82-28.99L58.82-28.99L58.82-28.99Q56.32-28.99 54.72-25.34L54.72-25.34L54.72-25.34Q54.08-23.94 53.63-21.82L53.63-21.82L49.28 0L36.42 1.28L45.44-44.80L58.30-46.08L57.79-43.52L57.79-43.52Q56-33.66 54.46-30.34L54.46-30.34L54.46-30.34Q58.05-33.92 64.64-33.92L64.64-33.92L64.64-33.92Q71.62-33.92 72.90-29.31L72.90-29.31L72.90-29.31Q73.34-27.84 73.34-26.56L73.34-26.56L73.34-26.56Q73.34-25.28 73.25-24.29L73.25-24.29L73.25-24.29Q73.15-23.30 72.83-21.50L72.83-21.50L72-16.90L70.53-9.66L70.53-9.66Q70.21-8.19 70.21-7.10Z" fill="#444"></path></g></g><style>text {
  font-size: 64px;
  font-family: Arial Black;
  dominant-baseline: central;
  text-anchor: middle;
}</style></svg>